<?xml version="1.0" encoding="utf-8"?>
<!-- Generator: Adobe Illustrator 24.2.0, SVG Export Plug-In . SVG Version: 6.00 Build 0)  -->
<svg version="1.1" id="Layer_1" xmlns="http://www.w3.org/2000/svg" xmlns:xlink="http://www.w3.org/1999/xlink" x="0px" y="0px"
	 viewBox="0 0 24 24" style="enable-background:new 0 0 24 24;" xml:space="preserve">
<style type="text/css">
	.st0{fill:#fff;}
	.st1{fill:#fff;}
</style>
<g id="_x31_2" transform="translate(642.000000, 471.000000)">
	<path id="Fill-42" class="st0" d="M-635.72-457.6c-1.25,0-2.3,0.81-2.67,1.95c-0.14,0.42,0.18,0.86,0.63,0.86h0.09
		c0.3,0,0.53-0.19,0.63-0.47c0.19-0.54,0.72-0.93,1.32-0.93c0.6,0,1.12,0.39,1.32,0.93c0.11,0.28,0.33,0.47,0.63,0.47h0.09
		c0.46,0,0.77-0.44,0.63-0.86C-633.4-456.79-634.47-457.6-635.72-457.6"/>
	<path id="Fill-44" class="st0" d="M-624.28-457.6c-1.25,0-2.3,0.81-2.67,1.95c-0.14,0.42,0.18,0.86,0.63,0.86h0.09
		c0.3,0,0.53-0.19,0.63-0.47c0.19-0.54,0.72-0.93,1.32-0.93c0.6,0,1.12,0.39,1.32,0.93c0.11,0.28,0.33,0.47,0.63,0.47h0.09
		c0.46,0,0.77-0.44,0.63-0.86C-621.98-456.79-623.04-457.6-624.28-457.6"/>
	<path id="Fill-47" class="st0" d="M-635.72-460.4c-1.25,0-2.3,0.81-2.67,1.95c-0.14,0.42,0.18,0.86,0.63,0.86h0.09
		c0.3,0,0.53-0.19,0.63-0.47c0.19-0.54,0.72-0.93,1.32-0.93c0.6,0,1.12,0.39,1.32,0.93c0.11,0.28,0.33,0.47,0.63,0.47h0.09
		c0.46,0,0.77-0.44,0.63-0.86C-633.4-459.6-634.47-460.4-635.72-460.4"/>
	<path id="Fill-49" class="st0" d="M-624.28-460.4c-1.25,0-2.3,0.81-2.67,1.95c-0.14,0.42,0.18,0.86,0.63,0.86h0.09
		c0.3,0,0.53-0.19,0.63-0.47c0.19-0.54,0.72-0.93,1.32-0.93c0.6,0,1.12,0.39,1.32,0.93c0.11,0.28,0.33,0.47,0.63,0.47h0.09
		c0.46,0,0.77-0.44,0.63-0.86C-621.98-459.6-623.04-460.4-624.28-460.4"/>
	<path id="Fill-52" class="st0" d="M-635.72-463.21c-1.25,0-2.3,0.81-2.67,1.95c-0.14,0.42,0.18,0.86,0.63,0.86h0.09
		c0.3,0,0.53-0.19,0.63-0.47c0.19-0.54,0.72-0.93,1.32-0.93c0.6,0,1.12,0.39,1.32,0.93c0.11,0.28,0.33,0.47,0.63,0.47h0.09
		c0.46,0,0.77-0.44,0.63-0.86C-633.4-462.4-634.47-463.21-635.72-463.21"/>
	<path id="Fill-54" class="st0" d="M-630-457.6c-1.25,0-2.3,0.81-2.67,1.95c-0.14,0.42,0.18,0.86,0.63,0.86h0.09
		c0.3,0,0.53-0.19,0.63-0.47c0.19-0.54,0.72-0.93,1.32-0.93s1.12,0.39,1.32,0.93c0.11,0.28,0.33,0.47,0.63,0.47h0.09
		c0.46,0,0.77-0.44,0.63-0.86C-627.7-456.79-628.75-457.6-630-457.6"/>
	<path id="Fill-56" class="st0" d="M-630-460.4c-1.25,0-2.3,0.81-2.67,1.95c-0.14,0.42,0.18,0.86,0.63,0.86h0.09
		c0.3,0,0.53-0.19,0.63-0.47c0.19-0.54,0.72-0.93,1.32-0.93s1.12,0.39,1.32,0.93c0.11,0.28,0.33,0.47,0.63,0.47h0.09
		c0.46,0,0.77-0.44,0.63-0.86C-627.7-459.6-628.75-460.4-630-460.4"/>
	<path id="Fill-58" class="st0" d="M-630-463.21c-1.25,0-2.3,0.81-2.67,1.95c-0.14,0.42,0.18,0.86,0.63,0.86h0.09
		c0.3,0,0.53-0.19,0.63-0.47c0.19-0.54,0.72-0.93,1.32-0.93s1.12,0.39,1.32,0.93c0.11,0.28,0.33,0.47,0.63,0.47h0.09
		c0.46,0,0.77-0.44,0.63-0.86C-627.7-462.4-628.75-463.21-630-463.21"/>
	<path id="Fill-60" class="st0" d="M-626.32-460.4h0.09c0.3,0,0.53-0.19,0.63-0.47c0.19-0.54,0.72-0.93,1.32-0.93
		c0.61,0,1.12,0.39,1.32,0.93c0.11,0.28,0.33,0.47,0.63,0.47h0.09c0.46,0,0.77-0.44,0.63-0.86c-0.37-1.14-1.42-1.95-2.67-1.95
		c-1.25,0-2.3,0.81-2.67,1.95C-627.09-460.84-626.77-460.4-626.32-460.4"/>
</g>
</svg>
