<?xml version="1.0" encoding="utf-8"?>
<!-- Generator: Adobe Illustrator 24.2.0, SVG Export Plug-In . SVG Version: 6.00 Build 0)  -->
<svg version="1.1" id="Layer_1" xmlns="http://www.w3.org/2000/svg" xmlns:xlink="http://www.w3.org/1999/xlink" x="0px" y="0px"
	 viewBox="0 0 24 24" style="enable-background:new 0 0 24 24;" xml:space="preserve">
<style type="text/css">
	.st0{fill:#fff;}
	.st1{fill:#fff;}
</style>
<g id="_x33_" transform="translate(450.000000, 63.000000)">
	<path id="Fill-20" class="st1" d="M-433.98-49.54c-0.24-0.07-0.49,0.08-0.56,0.32l-0.47,1.78c-0.07,0.24,0.08,0.49,0.32,0.56
		c0.24,0.07,0.49-0.08,0.56-0.32l0.47-1.78C-433.59-49.22-433.74-49.47-433.98-49.54"/>
	<path id="Fill-22" class="st1" d="M-435.7-49.51c-0.24-0.07-0.49,0.08-0.56,0.32l-0.71,2.66c-0.07,0.24,0.08,0.49,0.32,0.56
		c0.24,0.07,0.49-0.08,0.56-0.32l0.72-2.66C-435.31-49.2-435.44-49.46-435.7-49.51"/>
	<path id="Fill-24" class="st1" d="M-437.64-49.54c-0.24-0.07-0.49,0.08-0.56,0.32l-0.47,1.78c-0.07,0.24,0.08,0.49,0.32,0.56
		c0.24,0.07,0.49-0.08,0.56-0.32l0.47-1.78C-437.26-49.22-437.4-49.47-437.64-49.54"/>
	<path id="Fill-26" class="st1" d="M-439.36-49.51c-0.24-0.07-0.49,0.08-0.56,0.32l-0.71,2.66c-0.07,0.24,0.08,0.49,0.32,0.56
		c0.24,0.07,0.49-0.08,0.56-0.32l0.72-2.66C-438.97-49.2-439.11-49.46-439.36-49.51"/>
	<path id="Fill-28" class="st1" d="M-441.31-49.54c-0.24-0.07-0.49,0.08-0.56,0.32l-0.47,1.78c-0.07,0.24,0.08,0.49,0.32,0.56
		c0.24,0.07,0.49-0.08,0.56-0.32l0.47-1.78C-440.92-49.22-441.07-49.47-441.31-49.54"/>
	<path id="Fill-30" class="st1" d="M-433.71-51.04h-3.53c-0.15,0-0.26-0.14-0.22-0.29c0.24-0.87,1.04-1.51,1.98-1.51
		c0.94,0,1.74,0.64,1.98,1.51C-433.45-51.19-433.57-51.04-433.71-51.04L-433.71-51.04z M-438.18-52.61
		c-0.39-0.49-0.92-0.86-1.54-1.03c-0.14-0.03-0.21-0.19-0.15-0.31c0.33-0.69,1.04-1.17,1.86-1.17c0.81,0,1.52,0.48,1.86,1.17
		c0.06,0.13-0.01,0.28-0.15,0.31c-0.62,0.17-1.15,0.54-1.54,1.03C-437.91-52.49-438.09-52.49-438.18-52.61L-438.18-52.61z
		 M-438.76-51.04h-3.53c-0.15,0-0.26-0.14-0.22-0.29c0.24-0.87,1.04-1.51,1.98-1.51c0.94,0,1.74,0.64,1.98,1.51
		C-438.49-51.19-438.61-51.04-438.76-51.04L-438.76-51.04z M-432.51-51.04c-0.11-1.34-1.13-2.43-2.44-2.66
		c-0.09-0.01-0.16-0.08-0.18-0.17c-0.34-1.26-1.5-2.18-2.86-2.18c-1.07,0-1.99,0.56-2.52,1.4c-0.15,0.24-0.26,0.5-0.34,0.78
		c-0.02,0.09-0.09,0.15-0.18,0.17c-1.31,0.23-2.31,1.31-2.44,2.66l-0.01,0.26c0,0.38,0.31,0.69,0.69,0.69h9.62
		c0.38,0,0.69-0.31,0.69-0.69L-432.51-51.04z"/>
</g>
</svg>
